<mxfile host="app.diagrams.net" agent="Mozilla/5.0 (Windows NT 10.0; Win64; x64) AppleWebKit/537.36 (KHTML, like Gecko) Chrome/135.0.0.0 Safari/537.36" version="26.2.13" pages="2">
  <diagram id="z2S-jvWQMF_WWuArKDZR" name="Page-1">
    <mxGraphModel dx="2370" dy="1408" grid="1" gridSize="10" guides="1" tooltips="1" connect="1" arrows="1" fold="1" page="1" pageScale="1" pageWidth="850" pageHeight="1100" math="0" shadow="0">
      <root>
        <mxCell id="0" />
        <mxCell id="1" parent="0" />
        <mxCell id="svOz4ZfVZrn5yVj5O15P-2" value="&lt;span style=&quot;font-weight: normal;&quot;&gt;&amp;lt;&amp;lt;interface&amp;gt;&amp;gt;&lt;/span&gt;&lt;div&gt;Question&lt;/div&gt;" style="swimlane;fontStyle=1;align=center;verticalAlign=top;childLayout=stackLayout;horizontal=1;startSize=40;horizontalStack=0;resizeParent=1;resizeParentMax=0;resizeLast=0;collapsible=1;marginBottom=0;whiteSpace=wrap;html=1;" parent="1" vertex="1">
          <mxGeometry x="160" y="90" width="190" height="110" as="geometry" />
        </mxCell>
        <mxCell id="svOz4ZfVZrn5yVj5O15P-4" value="" style="line;strokeWidth=1;fillColor=none;align=left;verticalAlign=middle;spacingTop=-1;spacingLeft=3;spacingRight=3;rotatable=0;labelPosition=right;points=[];portConstraint=eastwest;strokeColor=inherit;" parent="svOz4ZfVZrn5yVj5O15P-2" vertex="1">
          <mxGeometry y="40" width="190" as="geometry" />
        </mxCell>
        <mxCell id="svOz4ZfVZrn5yVj5O15P-5" value="+ getQuestion(): String&lt;div&gt;+ getAllAnswers(): String[]&lt;/div&gt;&lt;div&gt;+ getCorrectAnswer(): String&lt;span style=&quot;white-space: pre;&quot;&gt;&#x9;&lt;/span&gt;&lt;/div&gt;" style="text;strokeColor=none;fillColor=none;align=left;verticalAlign=top;spacingLeft=4;spacingRight=4;overflow=hidden;rotatable=0;points=[[0,0.5],[1,0.5]];portConstraint=eastwest;whiteSpace=wrap;html=1;" parent="svOz4ZfVZrn5yVj5O15P-2" vertex="1">
          <mxGeometry y="40" width="190" height="70" as="geometry" />
        </mxCell>
        <mxCell id="svOz4ZfVZrn5yVj5O15P-7" value="MCQQuestion" style="swimlane;fontStyle=1;align=center;verticalAlign=top;childLayout=stackLayout;horizontal=1;startSize=26;horizontalStack=0;resizeParent=1;resizeParentMax=0;resizeLast=0;collapsible=1;marginBottom=0;whiteSpace=wrap;html=1;" parent="1" vertex="1">
          <mxGeometry x="145" y="350" width="220" height="370" as="geometry" />
        </mxCell>
        <mxCell id="svOz4ZfVZrn5yVj5O15P-8" value="- question: String&lt;div&gt;- answers: String[]&lt;/div&gt;&lt;div&gt;- correctAnswer: String&lt;/div&gt;" style="text;strokeColor=none;fillColor=none;align=left;verticalAlign=top;spacingLeft=4;spacingRight=4;overflow=hidden;rotatable=0;points=[[0,0.5],[1,0.5]];portConstraint=eastwest;whiteSpace=wrap;html=1;" parent="svOz4ZfVZrn5yVj5O15P-7" vertex="1">
          <mxGeometry y="26" width="220" height="64" as="geometry" />
        </mxCell>
        <mxCell id="svOz4ZfVZrn5yVj5O15P-9" value="" style="line;strokeWidth=1;fillColor=none;align=left;verticalAlign=middle;spacingTop=-1;spacingLeft=3;spacingRight=3;rotatable=0;labelPosition=right;points=[];portConstraint=eastwest;strokeColor=inherit;" parent="svOz4ZfVZrn5yVj5O15P-7" vertex="1">
          <mxGeometry y="90" width="220" height="8" as="geometry" />
        </mxCell>
        <mxCell id="svOz4ZfVZrn5yVj5O15P-10" value="&amp;lt;&amp;lt;create&amp;gt;&amp;gt; MCQQuestion&lt;div&gt;&lt;div&gt;&amp;lt;&amp;lt;create&amp;gt;&amp;gt; MCQQuestion(question: String, answers: String[], correctAnswer: String)&lt;/div&gt;&lt;div&gt;&lt;br&gt;&lt;/div&gt;&lt;div&gt;+ getQuestion(): String&lt;/div&gt;&lt;div&gt;+ setQuestion(newQ: String): void&lt;/div&gt;&lt;div&gt;+ getAllAnswers(): String[]&lt;/div&gt;&lt;div&gt;+ setAnswer(newA: String[]): void&lt;/div&gt;&lt;div&gt;+ getCorrectAnswer(): String&lt;/div&gt;&lt;div&gt;+ setCorrectAnswer(newCA: String): String&lt;/div&gt;&lt;div&gt;+ toString(): String&lt;/div&gt;&lt;div&gt;+ equals(obj: Object): boolean&lt;/div&gt;&lt;div&gt;&lt;br&gt;&lt;/div&gt;&lt;div&gt;&lt;br&gt;&lt;/div&gt;&lt;div&gt;&lt;br&gt;&lt;/div&gt;&lt;/div&gt;" style="text;strokeColor=none;fillColor=none;align=left;verticalAlign=top;spacingLeft=4;spacingRight=4;overflow=hidden;rotatable=0;points=[[0,0.5],[1,0.5]];portConstraint=eastwest;whiteSpace=wrap;html=1;" parent="svOz4ZfVZrn5yVj5O15P-7" vertex="1">
          <mxGeometry y="98" width="220" height="272" as="geometry" />
        </mxCell>
        <mxCell id="svOz4ZfVZrn5yVj5O15P-12" value="" style="endArrow=open;endSize=12;dashed=1;html=1;rounded=0;exitX=0.742;exitY=1.1;exitDx=0;exitDy=0;exitPerimeter=0;entryX=0.719;entryY=-0.071;entryDx=0;entryDy=0;entryPerimeter=0;" parent="1" source="svOz4ZfVZrn5yVj5O15P-5" target="svOz4ZfVZrn5yVj5O15P-8" edge="1">
          <mxGeometry x="0.2399" y="-37" width="160" relative="1" as="geometry">
            <mxPoint x="170" y="278" as="sourcePoint" />
            <mxPoint x="243" y="190" as="targetPoint" />
            <Array as="points" />
            <mxPoint y="1" as="offset" />
          </mxGeometry>
        </mxCell>
        <mxCell id="svOz4ZfVZrn5yVj5O15P-13" value="TFQuestion" style="swimlane;fontStyle=1;align=center;verticalAlign=top;childLayout=stackLayout;horizontal=1;startSize=26;horizontalStack=0;resizeParent=1;resizeParentMax=0;resizeLast=0;collapsible=1;marginBottom=0;whiteSpace=wrap;html=1;" parent="1" vertex="1">
          <mxGeometry x="450" y="90" width="230" height="370" as="geometry" />
        </mxCell>
        <mxCell id="svOz4ZfVZrn5yVj5O15P-14" value="- question: String&lt;div&gt;- answers: String[]&lt;/div&gt;&lt;div&gt;- correctAnswer: String&lt;/div&gt;" style="text;strokeColor=none;fillColor=none;align=left;verticalAlign=top;spacingLeft=4;spacingRight=4;overflow=hidden;rotatable=0;points=[[0,0.5],[1,0.5]];portConstraint=eastwest;whiteSpace=wrap;html=1;" parent="svOz4ZfVZrn5yVj5O15P-13" vertex="1">
          <mxGeometry y="26" width="230" height="64" as="geometry" />
        </mxCell>
        <mxCell id="svOz4ZfVZrn5yVj5O15P-15" value="" style="line;strokeWidth=1;fillColor=none;align=left;verticalAlign=middle;spacingTop=-1;spacingLeft=3;spacingRight=3;rotatable=0;labelPosition=right;points=[];portConstraint=eastwest;strokeColor=inherit;" parent="svOz4ZfVZrn5yVj5O15P-13" vertex="1">
          <mxGeometry y="90" width="230" height="8" as="geometry" />
        </mxCell>
        <mxCell id="svOz4ZfVZrn5yVj5O15P-16" value="&amp;lt;&amp;lt;create&amp;gt;&amp;gt; TFQuestion&lt;div&gt;&lt;div&gt;&amp;lt;&amp;lt;create&amp;gt;&amp;gt; TFQuestion(question: String, answers: String[], correctAnswer: String)&lt;/div&gt;&lt;div&gt;&lt;br&gt;&lt;/div&gt;&lt;div&gt;+ getQuestion(): String&lt;/div&gt;&lt;div&gt;+ setQuestion(newQ: String): void&lt;/div&gt;&lt;div&gt;&lt;br&gt;&lt;/div&gt;&lt;div&gt;+ getAllAnswers(): String[]&lt;/div&gt;&lt;div&gt;+ setAnswer(newA: String[]): void&lt;/div&gt;&lt;div&gt;&amp;nbsp;&lt;/div&gt;&lt;div&gt;+ getCorrectAnswer(): String&lt;/div&gt;&lt;div&gt;+ setCorrectAnswer(newCA: String): String&lt;/div&gt;&lt;div&gt;&lt;br&gt;&lt;/div&gt;&lt;div&gt;+ toString(): String&lt;/div&gt;&lt;div&gt;+ equals(obj: Object): boolean&lt;/div&gt;&lt;div&gt;&lt;br&gt;&lt;/div&gt;&lt;div&gt;&lt;br&gt;&lt;/div&gt;&lt;div&gt;&lt;br&gt;&lt;/div&gt;&lt;/div&gt;" style="text;strokeColor=none;fillColor=none;align=left;verticalAlign=top;spacingLeft=4;spacingRight=4;overflow=hidden;rotatable=0;points=[[0,0.5],[1,0.5]];portConstraint=eastwest;whiteSpace=wrap;html=1;" parent="svOz4ZfVZrn5yVj5O15P-13" vertex="1">
          <mxGeometry y="98" width="230" height="272" as="geometry" />
        </mxCell>
        <mxCell id="svOz4ZfVZrn5yVj5O15P-18" value="QuizQuestions" style="swimlane;fontStyle=1;align=center;verticalAlign=top;childLayout=stackLayout;horizontal=1;startSize=26;horizontalStack=0;resizeParent=1;resizeParentMax=0;resizeLast=0;collapsible=1;marginBottom=0;whiteSpace=wrap;html=1;" parent="1" vertex="1">
          <mxGeometry x="60" y="790" width="410" height="300" as="geometry" />
        </mxCell>
        <mxCell id="svOz4ZfVZrn5yVj5O15P-19" value="- allQuestions: ArrayList&amp;lt;Question&amp;gt;&lt;div&gt;- selectedQuestions: ArrayList&amp;lt;Question&amp;gt;&lt;/div&gt;" style="text;strokeColor=none;fillColor=none;align=left;verticalAlign=top;spacingLeft=4;spacingRight=4;overflow=hidden;rotatable=0;points=[[0,0.5],[1,0.5]];portConstraint=eastwest;whiteSpace=wrap;html=1;" parent="svOz4ZfVZrn5yVj5O15P-18" vertex="1">
          <mxGeometry y="26" width="410" height="44" as="geometry" />
        </mxCell>
        <mxCell id="svOz4ZfVZrn5yVj5O15P-20" value="" style="line;strokeWidth=1;fillColor=none;align=left;verticalAlign=middle;spacingTop=-1;spacingLeft=3;spacingRight=3;rotatable=0;labelPosition=right;points=[];portConstraint=eastwest;strokeColor=inherit;" parent="svOz4ZfVZrn5yVj5O15P-18" vertex="1">
          <mxGeometry y="70" width="410" height="8" as="geometry" />
        </mxCell>
        <mxCell id="svOz4ZfVZrn5yVj5O15P-21" value="&amp;lt;&amp;lt;create&amp;gt;&amp;gt;&lt;div&gt;&amp;lt;&amp;lt;create&amp;gt;&amp;gt;QuizQuestions(allQuestions: ArrayList&amp;lt;Question&amp;gt;, selectedQuestions: ArrayList&amp;lt;Question&amp;gt;)&lt;/div&gt;&lt;div&gt;&lt;br&gt;&lt;/div&gt;&lt;div&gt;+ getAllQuestions(): ArrayList&amp;lt;Question&amp;gt;&lt;/div&gt;&lt;div&gt;+ setAllQuestions(allQuestions: ArrayList&amp;lt;Question&amp;gt;): void&lt;/div&gt;&lt;div&gt;&lt;br&gt;&lt;/div&gt;&lt;div&gt;&lt;div&gt;+ getSelectedQuestions(): ArrayList&amp;lt;Question&amp;gt;&lt;/div&gt;&lt;div&gt;+ setSelectedQuestions(selectedQuestions: ArrayList&amp;lt;Question&amp;gt;): void&lt;/div&gt;&lt;/div&gt;&lt;div&gt;&lt;br&gt;&lt;/div&gt;&lt;div&gt;+ load(filename: String): void&lt;/div&gt;&lt;div&gt;+ select(numberOfQuestions: int): void&lt;/div&gt;" style="text;strokeColor=none;fillColor=none;align=left;verticalAlign=top;spacingLeft=4;spacingRight=4;overflow=hidden;rotatable=0;points=[[0,0.5],[1,0.5]];portConstraint=eastwest;whiteSpace=wrap;html=1;" parent="svOz4ZfVZrn5yVj5O15P-18" vertex="1">
          <mxGeometry y="78" width="410" height="222" as="geometry" />
        </mxCell>
        <mxCell id="svOz4ZfVZrn5yVj5O15P-26" value="StartEventHandler" style="swimlane;fontStyle=1;align=center;verticalAlign=top;childLayout=stackLayout;horizontal=1;startSize=26;horizontalStack=0;resizeParent=1;resizeParentMax=0;resizeLast=0;collapsible=1;marginBottom=0;whiteSpace=wrap;html=1;" parent="1" vertex="1">
          <mxGeometry x="950" y="40" width="390" height="1070" as="geometry" />
        </mxCell>
        <mxCell id="svOz4ZfVZrn5yVj5O15P-27" value="- tf: TextField&lt;div&gt;- vb: vbox&lt;/div&gt;&lt;div&gt;- correctAnswer: String&lt;/div&gt;&lt;div&gt;- submit: Button&lt;/div&gt;&lt;div&gt;- &lt;u&gt;finalScore&lt;/u&gt;: int&lt;/div&gt;&lt;div&gt;&lt;span style=&quot;background-color: transparent; color: light-dark(rgb(0, 0, 0), rgb(255, 255, 255));&quot;&gt;- time: Label&lt;/span&gt;&lt;/div&gt;&lt;div&gt;&lt;span style=&quot;background-color: transparent; color: light-dark(rgb(0, 0, 0), rgb(255, 255, 255));&quot;&gt;- scores: ArrayList&amp;lt;String&amp;gt;&lt;/span&gt;&lt;/div&gt;&lt;div&gt;- filed: String&lt;/div&gt;&lt;div&gt;- timeSeconds: int&lt;/div&gt;&lt;div&gt;- question: String&lt;/div&gt;&lt;div&gt;- self: Button&lt;/div&gt;&lt;div&gt;- count: int&lt;/div&gt;&lt;div&gt;- sp: ScrollPane&lt;/div&gt;&lt;div&gt;- theme: Button&lt;/div&gt;&lt;div&gt;&lt;br&gt;&lt;/div&gt;&lt;div&gt;&lt;br&gt;&lt;/div&gt;" style="text;strokeColor=none;fillColor=none;align=left;verticalAlign=top;spacingLeft=4;spacingRight=4;overflow=hidden;rotatable=0;points=[[0,0.5],[1,0.5]];portConstraint=eastwest;whiteSpace=wrap;html=1;" parent="svOz4ZfVZrn5yVj5O15P-26" vertex="1">
          <mxGeometry y="26" width="390" height="214" as="geometry" />
        </mxCell>
        <mxCell id="svOz4ZfVZrn5yVj5O15P-28" value="" style="line;strokeWidth=1;fillColor=none;align=left;verticalAlign=middle;spacingTop=-1;spacingLeft=3;spacingRight=3;rotatable=0;labelPosition=right;points=[];portConstraint=eastwest;strokeColor=inherit;" parent="svOz4ZfVZrn5yVj5O15P-26" vertex="1">
          <mxGeometry y="240" width="390" height="8" as="geometry" />
        </mxCell>
        <mxCell id="svOz4ZfVZrn5yVj5O15P-29" value="&amp;lt;&amp;lt;create&amp;gt;&amp;gt;&lt;div&gt;&amp;lt;&amp;lt;create&amp;gt;&amp;gt;StartEventHandler( self: Button, sp: ScrollPane, theme: Button, tf: TextField, vb: VBox)&lt;/div&gt;&lt;div&gt;&lt;br&gt;&lt;/div&gt;&lt;div&gt;&lt;div&gt;+ getTimeSeconds():&amp;nbsp; int&lt;/div&gt;&lt;div&gt;+ setTimeSeconds(timeSeconds: int): void&lt;/div&gt;&lt;/div&gt;&lt;div&gt;&lt;br&gt;&lt;/div&gt;&lt;div&gt;&lt;div&gt;+ getQuestion(): String&lt;/div&gt;&lt;div&gt;+ setQuestion(question: String): void&lt;/div&gt;&lt;/div&gt;&lt;div&gt;&lt;br&gt;&lt;/div&gt;&lt;div&gt;&lt;div&gt;+ getSelf(): Button&lt;/div&gt;&lt;div&gt;+ setSelf(self: Button): void&lt;/div&gt;&lt;/div&gt;&lt;div&gt;&lt;br&gt;&lt;/div&gt;&lt;div&gt;&lt;div&gt;+ getCount(): int&lt;/div&gt;&lt;div&gt;+ setCount(count: int): void&lt;/div&gt;&lt;/div&gt;&lt;div&gt;&lt;br&gt;&lt;/div&gt;&lt;div&gt;&lt;div&gt;+ getSp(): ScrollPane&lt;/div&gt;&lt;div&gt;+ setSp(sp: ScrollPane): void&lt;/div&gt;&lt;/div&gt;&lt;div&gt;&lt;br&gt;&lt;/div&gt;&lt;div&gt;&lt;div&gt;+ getTime(): Label&lt;/div&gt;&lt;div&gt;+ setTime(time: Label): void&lt;/div&gt;&lt;/div&gt;&lt;div&gt;&lt;br&gt;&lt;/div&gt;&lt;div&gt;+ getFiled(): String&lt;/div&gt;&lt;div&gt;+ setFiled(filed: String): void&lt;/div&gt;&lt;div&gt;&lt;br&gt;&lt;/div&gt;&lt;div&gt;+ getVb(): VBox&lt;/div&gt;&lt;div&gt;+ setVb(vb: VBox): void&lt;/div&gt;&lt;div&gt;&lt;br&gt;&lt;/div&gt;&lt;div&gt;&lt;div&gt;+ getCorrectAnswer(): String&lt;/div&gt;&lt;div&gt;+ setCorrectAnswer(newCA: String): void&lt;/div&gt;&lt;div&gt;&amp;nbsp;&lt;/div&gt;&lt;div&gt;+ getSubmit(): Button;&lt;/div&gt;&lt;div&gt;+ setSubmit(submit: Button): void&lt;/div&gt;&lt;/div&gt;&lt;div&gt;&lt;br&gt;&lt;/div&gt;&lt;div&gt;&lt;div&gt;+ getName(): TextField&lt;/div&gt;&lt;div&gt;+ setName(name: TextField): void&lt;/div&gt;&lt;/div&gt;&lt;div&gt;&lt;br&gt;&lt;/div&gt;&lt;div&gt;&lt;div&gt;+&amp;nbsp;&lt;u&gt;getFinalScore&lt;/u&gt;(): int&lt;/div&gt;&lt;div&gt;+&amp;nbsp;&lt;u&gt;setFinalScore&lt;/u&gt;(finalScore: int): void&lt;/div&gt;&lt;div&gt;&lt;br&gt;&lt;/div&gt;&lt;div&gt;+ subFinalScore(): void&lt;/div&gt;&lt;div&gt;+ addFinalScore(): void&lt;/div&gt;&lt;div&gt;&lt;br&gt;&lt;/div&gt;&lt;div&gt;+ getScores(): ArrayList&amp;lt;String&amp;gt;&lt;/div&gt;&lt;div&gt;+ setScores( scores: ArrayList&amp;lt;String&amp;gt;): void&lt;/div&gt;&lt;/div&gt;&lt;div&gt;&lt;br&gt;&lt;/div&gt;&lt;div&gt;&lt;span style=&quot;background-color: transparent; color: light-dark(rgb(0, 0, 0), rgb(255, 255, 255));&quot;&gt;- showScores(): void&lt;/span&gt;&lt;/div&gt;&lt;div&gt;&lt;br&gt;&lt;/div&gt;&lt;div&gt;- updatingTime(timeNow: long, vb: VBox): void&lt;/div&gt;&lt;div&gt;+ timer(): void&lt;/div&gt;&lt;div&gt;+ guiAccess(i: int): void&lt;/div&gt;&lt;div&gt;+ loading(wait: Label): void&lt;/div&gt;&lt;div&gt;+ loadScreen(wait: Label): void&lt;/div&gt;&lt;div&gt;+ removeLoad(wait: Label): void&lt;/div&gt;&lt;div&gt;&lt;br&gt;&lt;/div&gt;&lt;div&gt;+ handle(arg0: ActionEvent): void&lt;/div&gt;" style="text;strokeColor=none;fillColor=none;align=left;verticalAlign=top;spacingLeft=4;spacingRight=4;overflow=hidden;rotatable=0;points=[[0,0.5],[1,0.5]];portConstraint=eastwest;whiteSpace=wrap;html=1;" parent="svOz4ZfVZrn5yVj5O15P-26" vertex="1">
          <mxGeometry y="248" width="390" height="822" as="geometry" />
        </mxCell>
        <mxCell id="nAi_-VdUw_5P9gJJ4PLE-1" value="AnswerEventHandler" style="swimlane;fontStyle=1;align=center;verticalAlign=top;childLayout=stackLayout;horizontal=1;startSize=26;horizontalStack=0;resizeParent=1;resizeParentMax=0;resizeLast=0;collapsible=1;marginBottom=0;whiteSpace=wrap;html=1;" parent="1" vertex="1">
          <mxGeometry x="1440" y="40" width="210" height="280" as="geometry" />
        </mxCell>
        <mxCell id="nAi_-VdUw_5P9gJJ4PLE-2" value="- correctAnswer: String&lt;div&gt;- bn: Button&lt;/div&gt;&lt;div&gt;- vb: VBox&lt;/div&gt;" style="text;strokeColor=none;fillColor=none;align=left;verticalAlign=top;spacingLeft=4;spacingRight=4;overflow=hidden;rotatable=0;points=[[0,0.5],[1,0.5]];portConstraint=eastwest;whiteSpace=wrap;html=1;" parent="nAi_-VdUw_5P9gJJ4PLE-1" vertex="1">
          <mxGeometry y="26" width="210" height="64" as="geometry" />
        </mxCell>
        <mxCell id="nAi_-VdUw_5P9gJJ4PLE-3" value="" style="line;strokeWidth=1;fillColor=none;align=left;verticalAlign=middle;spacingTop=-1;spacingLeft=3;spacingRight=3;rotatable=0;labelPosition=right;points=[];portConstraint=eastwest;strokeColor=inherit;" parent="nAi_-VdUw_5P9gJJ4PLE-1" vertex="1">
          <mxGeometry y="90" width="210" height="8" as="geometry" />
        </mxCell>
        <mxCell id="nAi_-VdUw_5P9gJJ4PLE-4" value="&lt;div&gt;+ getCorrectAnswer(): String&lt;/div&gt;&lt;div&gt;+ setCorrectAnswer(correctAnswer: String): void&lt;/div&gt;&lt;div&gt;&lt;br&gt;&lt;/div&gt;&lt;div&gt;+ getBn(): Button&lt;/div&gt;&lt;div&gt;+ setBn(bn: Button): void&lt;/div&gt;&lt;div&gt;&lt;br&gt;&lt;/div&gt;&lt;div&gt;+ getVb(): VBox&lt;/div&gt;&lt;div&gt;+ setVb(vb: VBox): void&lt;/div&gt;&lt;div&gt;&lt;br&gt;&lt;/div&gt;&lt;div&gt;+ handle(): void&lt;/div&gt;&lt;div&gt;&lt;br&gt;&lt;/div&gt;&lt;div&gt;&lt;br&gt;&lt;/div&gt;" style="text;strokeColor=none;fillColor=none;align=left;verticalAlign=top;spacingLeft=4;spacingRight=4;overflow=hidden;rotatable=0;points=[[0,0.5],[1,0.5]];portConstraint=eastwest;whiteSpace=wrap;html=1;" parent="nAi_-VdUw_5P9gJJ4PLE-1" vertex="1">
          <mxGeometry y="98" width="210" height="182" as="geometry" />
        </mxCell>
        <mxCell id="nAi_-VdUw_5P9gJJ4PLE-5" value="Design" style="swimlane;fontStyle=1;align=center;verticalAlign=top;childLayout=stackLayout;horizontal=1;startSize=26;horizontalStack=0;resizeParent=1;resizeParentMax=0;resizeLast=0;collapsible=1;marginBottom=0;whiteSpace=wrap;html=1;" parent="1" vertex="1">
          <mxGeometry x="410" y="520" width="310" height="130" as="geometry" />
        </mxCell>
        <mxCell id="nAi_-VdUw_5P9gJJ4PLE-7" value="" style="line;strokeWidth=1;fillColor=none;align=left;verticalAlign=middle;spacingTop=-1;spacingLeft=3;spacingRight=3;rotatable=0;labelPosition=right;points=[];portConstraint=eastwest;strokeColor=inherit;" parent="nAi_-VdUw_5P9gJJ4PLE-5" vertex="1">
          <mxGeometry y="26" width="310" height="4" as="geometry" />
        </mxCell>
        <mxCell id="nAi_-VdUw_5P9gJJ4PLE-8" value="+ &lt;u&gt;labelFactory(text: String, color: Color): Label&lt;/u&gt;&lt;div&gt;&lt;u&gt;&lt;br&gt;&lt;/u&gt;&lt;div&gt;&lt;u style=&quot;background-color: transparent; color: light-dark(rgb(0, 0, 0), rgb(255, 255, 255));&quot;&gt;+ labelFactory(text: String): Label&lt;/u&gt;&lt;/div&gt;&lt;div&gt;&lt;u style=&quot;background-color: transparent; color: light-dark(rgb(0, 0, 0), rgb(255, 255, 255));&quot;&gt;&lt;br&gt;&lt;/u&gt;&lt;/div&gt;&lt;div&gt;&lt;u style=&quot;background-color: transparent; color: light-dark(rgb(0, 0, 0), rgb(255, 255, 255));&quot;&gt;+ buttonFactory(text: String, color: Color): Button&amp;nbsp;&lt;/u&gt;&lt;/div&gt;&lt;/div&gt;" style="text;strokeColor=none;fillColor=none;align=left;verticalAlign=top;spacingLeft=4;spacingRight=4;overflow=hidden;rotatable=0;points=[[0,0.5],[1,0.5]];portConstraint=eastwest;whiteSpace=wrap;html=1;" parent="nAi_-VdUw_5P9gJJ4PLE-5" vertex="1">
          <mxGeometry y="30" width="310" height="100" as="geometry" />
        </mxCell>
        <mxCell id="nAi_-VdUw_5P9gJJ4PLE-9" value="Quiz" style="swimlane;fontStyle=1;align=center;verticalAlign=top;childLayout=stackLayout;horizontal=1;startSize=26;horizontalStack=0;resizeParent=1;resizeParentMax=0;resizeLast=0;collapsible=1;marginBottom=0;whiteSpace=wrap;html=1;" parent="1" vertex="1">
          <mxGeometry x="1465" y="440" width="160" height="60" as="geometry" />
        </mxCell>
        <mxCell id="nAi_-VdUw_5P9gJJ4PLE-11" value="" style="line;strokeWidth=1;fillColor=none;align=left;verticalAlign=middle;spacingTop=-1;spacingLeft=3;spacingRight=3;rotatable=0;labelPosition=right;points=[];portConstraint=eastwest;strokeColor=inherit;" parent="nAi_-VdUw_5P9gJJ4PLE-9" vertex="1">
          <mxGeometry y="26" width="160" height="8" as="geometry" />
        </mxCell>
        <mxCell id="nAi_-VdUw_5P9gJJ4PLE-12" value="+ start(arg0: Stage)" style="text;strokeColor=none;fillColor=none;align=left;verticalAlign=top;spacingLeft=4;spacingRight=4;overflow=hidden;rotatable=0;points=[[0,0.5],[1,0.5]];portConstraint=eastwest;whiteSpace=wrap;html=1;" parent="nAi_-VdUw_5P9gJJ4PLE-9" vertex="1">
          <mxGeometry y="34" width="160" height="26" as="geometry" />
        </mxCell>
        <mxCell id="nAi_-VdUw_5P9gJJ4PLE-13" value="" style="endArrow=open;endFill=1;endSize=12;html=1;rounded=0;" parent="1" edge="1">
          <mxGeometry width="160" relative="1" as="geometry">
            <mxPoint x="1340" y="100" as="sourcePoint" />
            <mxPoint x="1440" y="100" as="targetPoint" />
          </mxGeometry>
        </mxCell>
        <mxCell id="nAi_-VdUw_5P9gJJ4PLE-15" value="" style="endArrow=open;endFill=1;endSize=12;html=1;rounded=0;entryX=0.995;entryY=0.431;entryDx=0;entryDy=0;entryPerimeter=0;" parent="1" target="svOz4ZfVZrn5yVj5O15P-29" edge="1">
          <mxGeometry width="160" relative="1" as="geometry">
            <mxPoint x="1460" y="466" as="sourcePoint" />
            <mxPoint x="1460" y="469.41" as="targetPoint" />
          </mxGeometry>
        </mxCell>
        <mxCell id="QlgJUjxaYM2KG00GvOW5-2" value="ThemeEventHandler" style="swimlane;fontStyle=1;align=center;verticalAlign=top;childLayout=stackLayout;horizontal=1;startSize=26;horizontalStack=0;resizeParent=1;resizeParentMax=0;resizeLast=0;collapsible=1;marginBottom=0;whiteSpace=wrap;html=1;" parent="1" vertex="1">
          <mxGeometry x="530" y="830" width="270" height="230" as="geometry" />
        </mxCell>
        <mxCell id="QlgJUjxaYM2KG00GvOW5-3" value="- bn: Button&lt;div&gt;- count: int&lt;/div&gt;&lt;div&gt;- vb: VBox&lt;/div&gt;" style="text;strokeColor=none;fillColor=none;align=left;verticalAlign=top;spacingLeft=4;spacingRight=4;overflow=hidden;rotatable=0;points=[[0,0.5],[1,0.5]];portConstraint=eastwest;whiteSpace=wrap;html=1;" parent="QlgJUjxaYM2KG00GvOW5-2" vertex="1">
          <mxGeometry y="26" width="270" height="54" as="geometry" />
        </mxCell>
        <mxCell id="QlgJUjxaYM2KG00GvOW5-4" value="" style="line;strokeWidth=1;fillColor=none;align=left;verticalAlign=middle;spacingTop=-1;spacingLeft=3;spacingRight=3;rotatable=0;labelPosition=right;points=[];portConstraint=eastwest;strokeColor=inherit;" parent="QlgJUjxaYM2KG00GvOW5-2" vertex="1">
          <mxGeometry y="80" width="270" height="8" as="geometry" />
        </mxCell>
        <mxCell id="QlgJUjxaYM2KG00GvOW5-5" value="&amp;lt;&amp;lt;create&amp;gt;&amp;gt;&lt;div&gt;&amp;lt;&amp;lt;create&amp;gt;&amp;gt; ThemeEventHandler(bn: Button, count: int, sp: ScrollPane)&lt;/div&gt;&lt;div&gt;&lt;br&gt;&lt;/div&gt;&lt;div&gt;+ handle(arg0: ActionEvent): void&lt;/div&gt;&lt;div&gt;&lt;br&gt;&lt;/div&gt;" style="text;strokeColor=none;fillColor=none;align=left;verticalAlign=top;spacingLeft=4;spacingRight=4;overflow=hidden;rotatable=0;points=[[0,0.5],[1,0.5]];portConstraint=eastwest;whiteSpace=wrap;html=1;" parent="QlgJUjxaYM2KG00GvOW5-2" vertex="1">
          <mxGeometry y="88" width="270" height="142" as="geometry" />
        </mxCell>
        <mxCell id="svOz4ZfVZrn5yVj5O15P-17" value="" style="endArrow=open;endSize=12;dashed=1;html=1;rounded=0;entryX=0.085;entryY=0.199;entryDx=0;entryDy=0;exitX=0.963;exitY=-0.071;exitDx=0;exitDy=0;exitPerimeter=0;entryPerimeter=0;" parent="1" source="svOz4ZfVZrn5yVj5O15P-5" target="svOz4ZfVZrn5yVj5O15P-14" edge="1">
          <mxGeometry x="0.2399" y="-37" width="160" relative="1" as="geometry">
            <mxPoint x="400" y="170" as="sourcePoint" />
            <mxPoint x="350" y="120" as="targetPoint" />
            <Array as="points" />
            <mxPoint y="1" as="offset" />
          </mxGeometry>
        </mxCell>
        <mxCell id="QlgJUjxaYM2KG00GvOW5-7" value="LeadComparator" style="swimlane;fontStyle=1;align=center;verticalAlign=top;childLayout=stackLayout;horizontal=1;startSize=26;horizontalStack=0;resizeParent=1;resizeParentMax=0;resizeLast=0;collapsible=1;marginBottom=0;whiteSpace=wrap;html=1;" parent="1" vertex="1">
          <mxGeometry x="1420" y="930" width="230" height="60" as="geometry" />
        </mxCell>
        <mxCell id="QlgJUjxaYM2KG00GvOW5-9" value="" style="line;strokeWidth=1;fillColor=none;align=left;verticalAlign=middle;spacingTop=-1;spacingLeft=3;spacingRight=3;rotatable=0;labelPosition=right;points=[];portConstraint=eastwest;strokeColor=inherit;" parent="QlgJUjxaYM2KG00GvOW5-7" vertex="1">
          <mxGeometry y="26" width="230" height="8" as="geometry" />
        </mxCell>
        <mxCell id="QlgJUjxaYM2KG00GvOW5-10" value="+ compare(o1: String, o2: String): int" style="text;strokeColor=none;fillColor=none;align=left;verticalAlign=top;spacingLeft=4;spacingRight=4;overflow=hidden;rotatable=0;points=[[0,0.5],[1,0.5]];portConstraint=eastwest;whiteSpace=wrap;html=1;" parent="QlgJUjxaYM2KG00GvOW5-7" vertex="1">
          <mxGeometry y="34" width="230" height="26" as="geometry" />
        </mxCell>
        <mxCell id="Ai8UTIVlpPM4AC2cmnae-1" value="Servered" style="swimlane;fontStyle=1;align=center;verticalAlign=top;childLayout=stackLayout;horizontal=1;startSize=26;horizontalStack=0;resizeParent=1;resizeParentMax=0;resizeLast=0;collapsible=1;marginBottom=0;whiteSpace=wrap;html=1;" vertex="1" parent="1">
          <mxGeometry x="980" y="1180" width="300" height="270" as="geometry" />
        </mxCell>
        <mxCell id="Ai8UTIVlpPM4AC2cmnae-2" value="- filed: String&lt;div&gt;- scores: ArrayList&amp;lt;String&amp;gt;&lt;/div&gt;" style="text;strokeColor=none;fillColor=none;align=left;verticalAlign=top;spacingLeft=4;spacingRight=4;overflow=hidden;rotatable=0;points=[[0,0.5],[1,0.5]];portConstraint=eastwest;whiteSpace=wrap;html=1;" vertex="1" parent="Ai8UTIVlpPM4AC2cmnae-1">
          <mxGeometry y="26" width="300" height="54" as="geometry" />
        </mxCell>
        <mxCell id="Ai8UTIVlpPM4AC2cmnae-3" value="" style="line;strokeWidth=1;fillColor=none;align=left;verticalAlign=middle;spacingTop=-1;spacingLeft=3;spacingRight=3;rotatable=0;labelPosition=right;points=[];portConstraint=eastwest;strokeColor=inherit;" vertex="1" parent="Ai8UTIVlpPM4AC2cmnae-1">
          <mxGeometry y="80" width="300" height="8" as="geometry" />
        </mxCell>
        <mxCell id="Ai8UTIVlpPM4AC2cmnae-4" value="+ getFiled(): String&lt;div&gt;+ setFiled(filed: String): void&lt;/div&gt;&lt;div&gt;&lt;br&gt;&lt;/div&gt;&lt;div&gt;+ getScores(): ArrayList&amp;lt;String&amp;gt;&lt;/div&gt;&lt;div&gt;+ setScores(scores: ArrayList&amp;lt;String&amp;gt;): void&lt;/div&gt;&lt;div&gt;&lt;br&gt;&lt;/div&gt;&lt;div&gt;&lt;div&gt;- readingFromFile(): ArrayList&amp;lt;String&amp;gt;&lt;/div&gt;&lt;/div&gt;&lt;div&gt;&lt;div&gt;&lt;span style=&quot;background-color: transparent; color: light-dark(rgb(0, 0, 0), rgb(255, 255, 255));&quot;&gt;- writeToFile(scoresList: ArrayList&amp;lt;String&amp;gt;)&lt;/span&gt;&lt;/div&gt;&lt;/div&gt;&lt;div&gt;&lt;span style=&quot;background-color: transparent; color: light-dark(rgb(0, 0, 0), rgb(255, 255, 255));&quot;&gt;&lt;br&gt;&lt;/span&gt;&lt;/div&gt;&lt;div&gt;+ combo(name: String, score: int, timeNow:int): void&lt;/div&gt;&lt;div&gt;+ serverThread(server: ServerSocket): void&lt;/div&gt;&lt;div&gt;&lt;span style=&quot;background-color: transparent; color: light-dark(rgb(0, 0, 0), rgb(255, 255, 255));&quot;&gt;&lt;br&gt;&lt;/span&gt;&lt;/div&gt;&lt;div&gt;&lt;br&gt;&lt;/div&gt;&lt;div&gt;&lt;br&gt;&lt;/div&gt;&lt;div&gt;&lt;br&gt;&lt;/div&gt;" style="text;strokeColor=none;fillColor=none;align=left;verticalAlign=top;spacingLeft=4;spacingRight=4;overflow=hidden;rotatable=0;points=[[0,0.5],[1,0.5]];portConstraint=eastwest;whiteSpace=wrap;html=1;" vertex="1" parent="Ai8UTIVlpPM4AC2cmnae-1">
          <mxGeometry y="88" width="300" height="182" as="geometry" />
        </mxCell>
        <mxCell id="Ai8UTIVlpPM4AC2cmnae-6" value="" style="endArrow=open;endFill=1;endSize=12;html=1;rounded=0;entryX=1.021;entryY=0.85;entryDx=0;entryDy=0;entryPerimeter=0;exitX=0;exitY=0.5;exitDx=0;exitDy=0;" edge="1" parent="1" source="QlgJUjxaYM2KG00GvOW5-10" target="svOz4ZfVZrn5yVj5O15P-29">
          <mxGeometry width="160" relative="1" as="geometry">
            <mxPoint x="1432" y="910" as="sourcePoint" />
            <mxPoint x="1310" y="1082" as="targetPoint" />
          </mxGeometry>
        </mxCell>
        <mxCell id="Ai8UTIVlpPM4AC2cmnae-8" value="" style="endArrow=open;endFill=1;endSize=12;html=1;rounded=0;entryX=0.993;entryY=0.278;entryDx=0;entryDy=0;entryPerimeter=0;exitX=-0.016;exitY=0.822;exitDx=0;exitDy=0;exitPerimeter=0;" edge="1" parent="1" source="svOz4ZfVZrn5yVj5O15P-29" target="QlgJUjxaYM2KG00GvOW5-5">
          <mxGeometry width="160" relative="1" as="geometry">
            <mxPoint x="922" y="810" as="sourcePoint" />
            <mxPoint x="800" y="982" as="targetPoint" />
          </mxGeometry>
        </mxCell>
      </root>
    </mxGraphModel>
  </diagram>
  <diagram id="-LQ4Dhlk7HqDR43KIq1Y" name="Page-2">
    <mxGraphModel grid="1" page="1" gridSize="10" guides="1" tooltips="1" connect="1" arrows="1" fold="1" pageScale="1" pageWidth="850" pageHeight="1100" math="0" shadow="0">
      <root>
        <mxCell id="0" />
        <mxCell id="1" parent="0" />
      </root>
    </mxGraphModel>
  </diagram>
</mxfile>
